# xmcd CD database file
#
# Track frame offsets:
#	150
#	25507
#	53603
#	77965
#	104560
#	137212
#	170639
#	189098
#	212827
#
# Disc length: 3387 seconds
#
# Revision: 1
# Processed by: cddbd v1.5.2PL0 Copyright (c) Steve Scherf et al.
# Submitted via: CDex 1.51
#
DISCID=750d3909
DTITLE=JOE BONAMASSA - At BBC Maida Vale Studio(Febr. 6, 2008)
DYEAR=2008
DGENRE=Blues Rock
TTITLE0=Bridge To Better Days
TTITLE1=Go Many Roads
TTITLE2=(Chat)
TTITLE3=One Of These Days
TTITLE4=Sloe Gin
TTITLE5=(Q and A Session)
TTITLE6=Wake Up Dreaming
TTITLE7=You Upsed Me Babby(Feat  Paul Jones) 
TTITLE8=Just Got Paid
EXTD=YEAR: 2008
EXTT0=
EXTT1=
EXTT2=
EXTT3=
EXTT4=
EXTT5=
EXTT6=
EXTT7=
EXTT8=
PLAYORDER=
